<?xml version="1.0" encoding="iso-8859-1"?>
<!-- Generator: Adobe Illustrator 19.2.0, SVG Export Plug-In . SVG Version: 6.00 Build 0)  -->
<svg version="1.1"  xmlns="http://www.w3.org/2000/svg" xmlns:xlink="http://www.w3.org/1999/xlink" x="0px" y="0px"
	 viewBox="0 0 48 48" style="enable-background:new 0 0 48 48;" xml:space="preserve">
<g>
	<path style="fill:#FFB74D;" d="M13.058,32.386l0.4,0.36c0,0-0.513-4.13,0-5.524c0.513-1.394,1.841-3.683,1.841-3.683
		s-0.921-1.921-0.921-3.683c0-1.761,4.171-5.459,6.445-5.524c7.218-0.208,11.128,3.943,12.89,4.603C35.475,19.597,40,17,40,17l1,8
		l-2,8v0.764c0,0.83-0.147,1.649-0.434,2.428C37.643,38.687,36,43,36,43s-4.001,0.795-9.652,0.795c-4.36,0-11.615-2.96-12.348-4.795
		s-1.822-7.494-1.822-7.494L13.058,32.386z"/>
</g>
<g>
	<path style="fill:#7F8C8D;" d="M36,43c0,0-3.346,1-9,1c-4.359,0-12.269-3.168-13-5c-0.731-1.832-1.822-7.494-1.822-7.494
		l0.881,0.881l1.321,1.281C16.063,34.625,18.186,35.436,20,36l2-3c0,0,3.651,0.535,8.952,1.588c5.793,1.151,5.589,0.249,6.25,2.01
		c0.115,0.306,0.339,1.163,0.465,1.999C37.291,39.64,36,43,36,43z"/>
</g>
<path style="fill:none;stroke:#EAA549;stroke-width:2;stroke-linecap:round;stroke-miterlimit:10;" d="M30.952,29.984
	c0,0,2.048,0.173,2.048,1.516c0,0.921-0.469,1.281-1,1.5"/>
<path style="fill:#FFFFFF;" d="M24.298,30c0,0,1.522,0,2.579-0.86c1.056-0.86,1.423-2.65,0.86-3.439
	c-0.564-0.788-3.044-2.579-5.158-2.579c-1.898,0-2.579,1.719-2.579,1.719S20,30,24.298,30z"/>
<g>
	<path style="fill:#6D4C41;" d="M38,6c0,0-0.56,4.192-1,5c0,0-0.698-4.239-4-6c0,1.761,0,4,0,4s-1.643-3.899-7-5l2,5
		c0,0-3.835-3.707-10-4c1.468,2.055,2,4,2,4c-3.833-2.208-6.532-0.028-8,1c3.229,0.367,4,2,4,2c-0.958,0-1,0-1,0
		c-4.036,0-6.34,1.505-7,4c1.208,0,3,1,3,1l-3,2l2,3v5l3,5c0,0,0.079,0,1,0c0-0.403,0-1.281,0-2c0-4.316,1.828-6.071,1.84-6.101
		c0.287-0.693,0.191-1.243-0.358-1.899C15.219,21.685,15,21.208,15,20c0-1.171,1.936-5,7-5c4.488,0,8.343,3.06,11,4
		c2.708,0.958,4.917,1,7,1c0,0,2-0.68,2-6.108C42,9.489,38,6,38,6z"/>
</g>
<path style="fill:#6D4C41;" d="M22.856,26.407c-0.441,1.628,0.095,3.216,1.197,3.549c0.096,0.029,0.194,0.034,0.291,0.043
	c0.081-0.002,0.302-0.015,0.606-0.064c0.815-0.257,1.572-1.133,1.895-2.325c0.344-1.272,0.087-2.511-0.566-3.155
	c-0.206-0.136-0.424-0.269-0.655-0.397C24.529,23.747,23.294,24.791,22.856,26.407z"/>
<path style="fill:#333333;" d="M25.451,24.898c-0.606-0.205-1.293,0.444-1.536,1.449c-0.242,1.006,0.052,1.987,0.658,2.193
	c0.606,0.205,1.293-0.444,1.536-1.449C26.352,26.084,26.057,25.103,25.451,24.898z"/>
<path style="fill:#FFFFFF;" d="M36,31.988c-2,0-2-3.683-2-3.683s0.629-1.841,3.019-1.841c1.82,0,2.115,1.234,1.935,2.762
	C38.627,32.012,36.98,31.988,36,31.988z"/>
<path style="fill:#6D4C41;" d="M37.279,26.587c-0.684-0.356-1.457,0.235-1.834,1.712c-0.376,1.476-0.213,3.278,0.471,3.634
	c0.834,0.161,1.623-0.533,1.918-2.028C38.125,28.438,37.963,26.943,37.279,26.587z"/>
<path style="fill:#333333;" d="M37.125,27.415c-0.329-0.217-0.73,0.082-0.959,0.877s-0.199,1.784,0.13,2.001
	c0.329,0.217,0.781-0.252,1.01-1.047C37.535,28.451,37.454,27.631,37.125,27.415z"/>
<path style="fill:#FFFFFF;" d="M35.347,36.918C35.309,36.922,24.565,35.378,23,35l1.446,4h10.179L35.347,36.918z"/>
<path style="fill:none;stroke:#6D4C41;stroke-width:2;stroke-linecap:round;stroke-miterlimit:10;" d="M29,24c0,0-1.982-3.345-10-3"
	/>
<path style="fill:none;stroke:#6D4C41;stroke-width:2;stroke-linecap:round;stroke-miterlimit:10;" d="M35,25c0,0,3.469-1.063,5,0"
	/>
<path style="fill:#FFB74D;" d="M13.519,31c0,0-1.809-4.971-4.398-5c-4.462-0.05-2.829,5.057-2.829,5.057S8.678,36,11,36
	c2.406,0,3.601-2.198,4-3v-2H13.519z"/>
<path style="fill:none;stroke:#EAA549;stroke-width:2;stroke-linecap:round;stroke-miterlimit:10;" d="M11,31c0,0-0.826-2-2-2"/>
</svg>
