<?xml version="1.0" encoding="iso-8859-1"?>
<!-- Generator: Adobe Illustrator 19.1.1, SVG Export Plug-In . SVG Version: 6.00 Build 0)  -->
<svg xmlns="http://www.w3.org/2000/svg" xmlns:xlink="http://www.w3.org/1999/xlink" version="1.1" id="Layer_1" x="0px" y="0px" viewBox="0 0 48 48" style="enable-background:new 0 0 48 48;" xml:space="preserve">
<polygon style="fill:#546E7A;" points="31.917,34 15.917,34 4,46 44,46 "/>
<rect x="15" y="32" style="fill:#ECEFF1;" width="18" height="14"/>
<polygon style="fill:#CFD8DC;" points="21.917,41 17.917,46 29.917,46 25.917,41 "/>
<polygon style="fill:#FF3D00;" points="25.917,41 21.917,41 19.722,43.743 21.917,46 25.917,46 28.166,43.812 "/>
<path style="fill:#FC8F00;" d="M14.057,19c0,0-2.583-1-4-1s-1,3-1,3s0.75,7.667,2,8l2,1L14.057,19z"/>
<path style="fill:#FC8F00;" d="M34.886,30l2.057-1c1.25-0.333,2-8,2-8s0.417-3-1-3S33,19,33,19L34.886,30z"/>
<path style="fill:#E65100;" d="M10.161,20.354c0,0,0.729-1.438,2.896,1.646c2.037,2.899-2,0-2,0v4  C11.057,26,9.745,20.854,10.161,20.354z"/>
<path style="fill:#E65100;" d="M37.839,20.354c0,0-0.729-1.438-2.896,1.646c-2.037,2.899,2,0,2,0v4  C36.943,26,38.255,20.854,37.839,20.354z"/>
<path style="fill:#FFAA45;" d="M33,6c-1.98-2.377-4.523-4-9-4s-7.02,1.623-9,4c-2.774,3.329-4,6.438-4,12c0,2.125,1.438,12.063,2,15  c0.414,2.162,4.009,6.015,5.88,7.9c0.7,0.706,1.647,1.1,2.641,1.1H24h2.479c0.994,0,1.941-0.394,2.641-1.1  c1.87-1.885,5.466-5.739,5.88-7.9c0.563-2.938,2-12.875,2-15C37,12.438,35.774,9.329,33,6z"/>
<rect x="20" y="34" style="fill:#F27F03;" width="8" height="2"/>
<circle style="fill:#4E342E;" cx="17.5" cy="22.5" r="1.5"/>
<circle style="fill:#4E342E;" cx="30.5" cy="22.5" r="1.5"/>
<path style="fill:none;stroke:#C16E14;stroke-width:2;stroke-miterlimit:10;" d="M26,23l6-2h2"/>
<path style="fill:none;stroke:#C16E14;stroke-width:2;stroke-miterlimit:10;" d="M14,21h2l6,2"/>
<path style="fill:none;stroke:#FFCC80;stroke-width:2;stroke-linecap:round;stroke-miterlimit:10;" d="M24,5  c0,0-3.785-0.024-6.698,3"/>
</svg>
