<?xml version="1.0" encoding="iso-8859-1"?>
<!-- Generator: Adobe Illustrator 21.0.0, SVG Export Plug-In . SVG Version: 6.00 Build 0)  -->
<svg version="1.1" 
	 xmlns="http://www.w3.org/2000/svg" xmlns:xlink="http://www.w3.org/1999/xlink" x="0px" y="0px" viewBox="0 0 48 48"
	 style="enable-background:new 0 0 48 48;" xml:space="preserve">
<path style="fill:#FFFFFF;stroke:#3E2723;stroke-width:2;stroke-linecap:round;stroke-linejoin:round;stroke-miterlimit:10;" d="
	M33.5,17.318c0,0,2.85-3.209,2.85-7.636S35.4,3.955,35.4,3.955l-7.158,8.22L33.5,17.318z"/>
<path style="fill:#FFFFFF;stroke:#3E2723;stroke-width:2;stroke-linecap:round;stroke-linejoin:round;stroke-miterlimit:10;" d="
	M20.2,10.636c0,0-2.739-5.228-4.75-7.636c-1.947,3.776-1.9,7.636-1.9,7.636l0.324,2.864L15,15.375L20.2,10.636z"/>
<path style="fill:#F44336;stroke:#3E2723;stroke-width:2;stroke-linecap:square;stroke-miterlimit:10;" d="M35.4,15.409
	c1.85,1.341,5.319,2.966,5.7,5.727c0.229,1.657-1.9,1.909-1.9,1.909c2.05,1.486,4.393,4.445,3.633,6.725
	c-0.458,1.375-1.733,1.866-1.733,1.866s1.997,6.689-0.95,7.636c-1.088,0.35-2-0.797-2-0.797S34,45,24,45c-7,0-9.979-2.979-12-6
	c-0.583,1.667-2,2-3.031,1C8.633,39.674,8,38.496,8,36c0-1.806,0.065-3.616,0.102-4.479c0,0-1.518,0.646-2.414-0.229
	C3.147,28.794,8.8,24,8.8,24s-1.425,0.281-1.9-0.955C6.071,20.887,10.531,19,10.531,19S7.094,19.25,6.9,17.318
	C6.555,13.878,18.3,13.5,18.3,13.5c-1.759-1.106-1.9-1.909-1.9-1.909s-0.052-0.955,1.9-0.955c3.449,0,6.762,1.739,6.762,1.739
	s-1.253-2.531,0.844-3.013c0.87-0.2,1.938,0.263,3.031,1.638C31.183,13.69,33.55,14.068,35.4,15.409z"/>
<path style="fill:#FFFFFF;stroke:#FFFFFF;stroke-width:2;stroke-miterlimit:10;" d="M16,26.926
	c-0.002-2.638,1.165-5.372,3.456-6.784c2.486-1.532,5.544-1.309,8.54-0.574c2.453,1.044,4.393,3.307,4.885,5.928
	c0.492,2.622-0.559,5.516-2.72,7.078c-1.982,1.433-4.16,1.493-7.033,1.396c-2.135-0.235-4.375-0.903-5.727-2.573
	c-0.855-1.057-1.266-2.421-1.373-3.777C16.009,27.39,16,27.159,16,26.926z"/>
<path d="M24.5,21c-0.738,0-1.42,0.33-1.984,0.886C22.814,22.323,23,22.881,23,23.5c0,1.381-0.895,2.5-2,2.5c0,2.761,1.567,5,3.5,5
	s3.5-2.239,3.5-5S26.433,21,24.5,21z"/>
<path style="fill:#FFFFFF;" d="M19.999,39.002c0.388,1.424,1.123,2.998,2.472,2.999c1.574,0,2.252-1.811,2.528-2.999L19.999,39.002z
	"/>
<g>
	<path style="fill:#3E2723;" d="M37.031,31c0,0-5.565,6.288-12.286,6.922c-0.68,0.064-1.325,0.093-1.935,0.093
		c-5.185,0-7.81-2.078-7.81-2.078c0.827,2.431,4.201,4.074,8.075,4.074c2.168,0,4.492-0.515,6.614-1.695
		C35.071,35.323,37.031,31,37.031,31L37.031,31z"/>
</g>
</svg>
