<?xml version="1.0" encoding="iso-8859-1"?>
<!-- Generator: Adobe Illustrator 19.2.0, SVG Export Plug-In . SVG Version: 6.00 Build 0)  -->
<svg version="1.1"  xmlns="http://www.w3.org/2000/svg" xmlns:xlink="http://www.w3.org/1999/xlink" x="0px" y="0px"
	 viewBox="0 0 48 48" style="enable-background:new 0 0 48 48;" xml:space="preserve">
<path style="fill:#E74C3C;" d="M15,33h-3c-0.55,0-1-0.45-1-1v-3c0-0.55,0.45-1,1-1h3c0.55,0,1,0.45,1,1v3C16,32.55,15.55,33,15,33z"
	/>
<rect x="23" y="14" style="fill:#BDC3C7;" width="4" height="14"/>
<path style="fill:#34495E;" d="M19,32c0-3.314,2.686-6,6-6s6,2.686,6,6H19z"/>
<path style="fill:#2980B9;" d="M40,42H8c-1.65,0-3-1.35-3-3v-6c0-1.65,1.35-3,3-3h32c1.65,0,3,1.35,3,3v6C43,40.65,41.65,42,40,42z"
	/>
<circle style="fill:#E74C3C;" cx="25" cy="11" r="6"/>
</svg>
