<?xml version="1.0" encoding="iso-8859-1"?>
<!-- Generator: Adobe Illustrator 21.0.0, SVG Export Plug-In . SVG Version: 6.00 Build 0)  -->
<svg xmlns="http://www.w3.org/2000/svg" xmlns:xlink="http://www.w3.org/1999/xlink" version="1.1" x="0px" y="0px" viewBox="0 0 48 48" style="enable-background:new 0 0 48 48;" xml:space="preserve">
<g id="Layer_1">
</g>
<g id="Layer_2">
</g>
<g id="Layer_3">
	<circle style="fill-rule:evenodd;clip-rule:evenodd;fill:#BDBDBD;" cx="11.901" cy="31.552" r="1.784"/>
	<path style="fill-rule:evenodd;clip-rule:evenodd;fill:#757575;" d="M43.1,14.524c0-1.987-2.134-3.524-4.121-3.524H8.958   c-1.987,0-3.979,1.971-3.979,3.958l-1,16.104c0,1.987,1.734,3.861,3.721,3.861h32.8c1.987,0,3.6-1.613,3.6-3.6L43.1,14.524z"/>
	<path style="fill:#424242;" d="M43.281,28.6l-7.053-0.426c-0.836-0.051-1.607-0.402-2.332-0.84C31.428,25.84,26.857,25,24,25   c-2.857,0-7.2,0.96-9.862,2.308c-0.757,0.383-1.504,0.784-2.342,0.838L4.719,28.6c-0.397,0-0.719,0.338-0.727,0.77v6.89   C4,36.662,4.322,37,4.719,37h38.562C43.678,37,44,36.662,44,36.245v-6.89C44,28.938,43.678,28.6,43.281,28.6z"/>
	<rect x="2" y="30" style="fill-rule:evenodd;clip-rule:evenodd;fill:#424242;" width="10" height="7"/>
	<ellipse style="fill-rule:evenodd;clip-rule:evenodd;fill:#424242;" cx="24" cy="18" rx="11" ry="2.5"/>
	<path style="fill:#E0E0E0;" d="M13,18c7.782,0.032,17.271,0.079,22,0V8.008c0-0.56-0.348-1.057-0.863-1.229   C32.471,6.221,28.972,4.949,24,5c-5.002,0.051-8.307,1.212-10.159,1.875C13.337,7.056,13,7.546,13,8.097V18z"/>
	<path style="fill-rule:evenodd;clip-rule:evenodd;fill:#757575;" d="M12,30.013C11.983,31.111,9.749,32,7,32c-2.76,0-5-0.896-5-2   h10L12,30.013z"/>
	<path style="fill-rule:evenodd;clip-rule:evenodd;fill:#757575;" d="M4.542,23.958l-0.397,6.081L2,30   C2,29.01,2.573,26.966,4.542,23.958z"/>
	<path style="fill-rule:evenodd;clip-rule:evenodd;fill:#424242;" d="M12,36.927c-0.017,1.098-2.251,1.987-5,1.987   c-2.76,0-5-0.896-5-2h10L12,36.927z"/>
	<rect x="36" y="30" style="fill-rule:evenodd;clip-rule:evenodd;fill:#424242;" width="10" height="6.843"/>
	<path style="fill-rule:evenodd;clip-rule:evenodd;fill:#757575;" d="M36,29.856c0.017,1.098,2.251,1.987,5,1.987   c2.76,0,5-0.896,5-2H36L36,29.856z"/>
	<path style="fill-rule:evenodd;clip-rule:evenodd;fill:#757575;" d="M43.583,23.875L44,30h2   C45.916,29.178,45.469,26.966,43.583,23.875z"/>
	<path style="fill-rule:evenodd;clip-rule:evenodd;fill:#424242;" d="M36,36.77c0.017,1.098,2.251,1.987,5,1.987c2.76,0,5-0.896,5-2   H36L36,36.77z"/>
	<circle style="fill-rule:evenodd;clip-rule:evenodd;fill:#AFBEC5;" cx="15.5" cy="32.5" r="1.5"/>
	<circle style="fill-rule:evenodd;clip-rule:evenodd;fill:#78909C;" cx="15.5" cy="32.5" r="0.5"/>
	<circle style="fill-rule:evenodd;clip-rule:evenodd;fill:#AFBEC5;" cx="19.5" cy="32.5" r="1.5"/>
	<circle style="fill-rule:evenodd;clip-rule:evenodd;fill:#AFBEC5;" cx="32.5" cy="32.5" r="1.5"/>
	<circle style="fill-rule:evenodd;clip-rule:evenodd;fill:#AFBEC5;" cx="28.5" cy="32.5" r="1.5"/>
	<path style="fill-rule:evenodd;clip-rule:evenodd;fill:#424242;" d="M12,24.5c0-0.276-0.224-0.5-0.5-0.5h-1   c-0.276,0-0.5,0.224-0.5,0.5v2c0,0.276,0.224,0.5,0.5,0.5h1c0.276,0,0.5-0.224,0.5-0.5V24.5z"/>
	<path style="fill-rule:evenodd;clip-rule:evenodd;fill:#424242;" d="M36.758,24.5c0-0.276-0.224-0.5-0.5-0.5h-1   c-0.276,0-0.5,0.224-0.5,0.5v2c0,0.276,0.224,0.5,0.5,0.5h1c0.276,0,0.5-0.224,0.5-0.5V24.5z"/>
	<circle style="fill-rule:evenodd;clip-rule:evenodd;fill:#78909C;" cx="19.5" cy="32.5" r="0.5"/>
	<circle style="fill-rule:evenodd;clip-rule:evenodd;fill:#78909C;" cx="28.5" cy="32.5" r="0.5"/>
	<circle style="fill-rule:evenodd;clip-rule:evenodd;fill:#78909C;" cx="32.5" cy="32.5" r="0.5"/>
	<path style="fill:#4FC3F7;" d="M29,5.403C27.558,5.152,25.886,4.981,24,5c-1.911,0.02-3.571,0.202-5,0.456v12.568   c3.48,0.013,6.972,0.022,10,0.018V5.403z"/>
</g>
</svg>
