<?xml version="1.0"?>
<svg xmlns="http://www.w3.org/2000/svg" viewBox="0 0 50 50" enable-background="new 0 0 50 50">
    <path style="text-indent:0;text-align:start;line-height:normal;text-transform:none;block-progression:tb;-inkscape-font-specification:Bitstream Vera Sans" d="M 18.8125 4 A 1.0001 1.0001 0 0 0 18 5 L 18 26 L 15.15625 27.0625 L 5.875 30.34375 A 1.0001 1.0001 0 0 0 5.84375 30.375 L 4.25 30.96875 A 1.0001 1.0001 0 0 0 4.1875 31 C 1.5892534 32.190863 0 33.820833 0 35.6875 C 0 37.173397 0.43603026 38.524284 1.3125 39.53125 C 2.1889697 40.538216 3.4510526 41.186714 4.96875 41.5 C 8.0041448 42.126572 12.118746 41.53217 17.3125 39.75 C 17.526938 39.678521 17.693341 39.608564 18 39.5 L 18 41.59375 A 1.0001 1.0001 0 0 0 18.71875 42.5625 L 26.4375 44.875 A 1.0001 1.0001 0 0 0 26.53125 44.90625 A 1.0001 1.0001 0 0 0 26.8125 45 A 1.0001 1.0001 0 0 0 27.09375 45 A 1.0001 1.0001 0 0 0 27.125 45 A 1.0001 1.0001 0 0 0 27.34375 44.9375 A 1.0001 1.0001 0 0 0 27.46875 44.90625 A 1.0001 1.0001 0 0 0 27.5 44.875 L 33.625 42.75 L 44.4375 38.9375 A 1.0001 1.0001 0 0 0 44.53125 38.90625 L 45.75 38.34375 C 45.77651 38.33355 45.78625 38.3227 45.8125 38.3125 C 47.133272 37.799322 48.14421 37.262345 48.875 36.59375 C 49.620315 35.911866 50.073009 34.980366 50 34.03125 C 49.91984 33.069286 49.314502 32.259584 48.5 31.65625 C 47.685498 31.052916 46.626087 30.576598 45.3125 30.15625 C 42.276538 29.109366 39.267789 28.8022 36.5625 28.90625 C 34.004926 29.008553 31.323653 29.404738 28.65625 30.21875 L 28.59375 30.25 L 28 30.40625 L 28 13.53125 C 28.576429 13.847198 29 14.349939 29 15 L 29 26.09375 A 1.0001 1.0001 0 0 0 29.4375 26.9375 C 29.4375 26.9375 29.895828 27.241743 30.65625 27.5 C 31.416672 27.758257 32.538889 28 34 28 C 36.711702 28 38.426111 26.355711 39.1875 24.53125 C 39.948889 22.706789 40 20.69625 40 19.40625 C 40 13.320285 36.320504 9.1573044 31.28125 7.65625 L 19.28125 4.03125 A 1.0001 1.0001 0 0 0 18.90625 4 A 1.0001 1.0001 0 0 0 18.8125 4 z M 20 6.34375 L 30.71875 9.5625 C 35.079496 10.861446 38 14.092215 38 19.40625 C 38 20.61625 37.90736 22.399461 37.34375 23.75 C 36.780139 25.100539 35.988298 26 34 26 C 32.761111 26 31.877078 25.785493 31.3125 25.59375 C 31.078651 25.51433 31.115482 25.522851 31 25.46875 L 31 15 C 31 13.37129 29.904722 12.040438 28.46875 11.5 C 28.45488 11.4948 28.45144 11.47382 28.4375 11.46875 C 27.263469 11.025177 26 11.932368 26 13.1875 L 26 31.5625 A 1.0004882 1.0004882 0 0 0 26 31.78125 L 26 36.40625 A 1.0097184 1.0097184 0 0 0 26 36.8125 L 26 39.25 A 1.0001 1.0001 0 0 0 26 39.84375 L 26 42.65625 L 20 40.875 L 20 38.34375 A 1.0001 1.0001 0 0 0 20 37.75 L 20 34.5625 A 1.0001 1.0001 0 0 0 20 33.75 L 20 31.6875 A 1.0001 1.0001 0 0 0 20 30.8125 L 20 26.8125 A 1.0001 1.0001 0 0 0 20 26.5 L 20 6.34375 z M 18 28.125 L 18 30.59375 C 17.527247 30.759268 16.601256 31.095584 15.125 31.625 C 14.219728 31.949649 13.304538 32.301153 12.5625 32.5625 C 11.820462 32.823847 11.188125 33.013214 11.125 33.03125 A 1.0001 1.0001 0 0 0 11.0625 33.0625 C 9.6295468 33.593223 8.7077397 34.1178 8.125 34.71875 C 7.8336302 35.019225 7.5910579 35.360303 7.53125 35.84375 C 7.486821 36.202882 7.7834535 36.519617 8.03125 36.8125 L 7.90625 36.90625 C 7.90625 36.90625 8.0774467 37.055242 8.1875 37.15625 C 8.27176 37.23358 8.2895002 37.27164 8.40625 37.34375 C 8.6754894 37.510045 9.0597755 37.660807 9.5625 37.75 C 10.562706 37.927456 12.028089 37.80917 14.21875 37.03125 C 14.22959 37.02745 14.2391 37.03505 14.25 37.03125 C 15.509803 36.589563 16.914572 36.068765 18 35.65625 L 18 37.375 C 17.543292 37.536495 17.067354 37.717132 16.6875 37.84375 C 11.681254 39.561579 7.7896052 40.029678 5.375 39.53125 C 4.1676974 39.282036 3.3422803 38.827409 2.8125 38.21875 C 2.2827197 37.610091 2 36.801603 2 35.6875 C 2 35.154167 2.8294966 33.821637 5.03125 32.8125 L 6.53125 32.25 L 6.5625 32.25 L 15.84375 28.9375 L 18 28.125 z M 36.625 30.90625 C 39.119711 30.8103 41.923462 31.078134 44.6875 32.03125 A 1.0001 1.0001 0 0 0 44.6875 32.0625 C 45.873913 32.442152 46.777002 32.853334 47.3125 33.25 C 47.847998 33.646666 47.980164 33.949464 48 34.1875 C 48.02699 34.538384 47.96093 34.731884 47.53125 35.125 C 47.101565 35.518116 46.271112 35.99188 45.03125 36.46875 A 1.0001 1.0001 0 0 0 44.96875 36.5 L 43.78125 37.0625 L 43.6875 37.09375 L 32.96875 40.84375 L 28 42.59375 L 28 40.1875 C 28.98364 39.830137 37.042693 36.913548 38.84375 36.25 C 40.35693 35.695167 41.298151 35.310727 41.9375 34.96875 C 42.257174 34.797761 42.509343 34.646217 42.75 34.375 C 42.990657 34.103783 43.16359 33.560608 43.0625 33.15625 A 1.0001 1.0001 0 0 0 42.9375 32.84375 C 42.624014 32.373521 41.93844 32.058913 41.1875 31.90625 L 41.21875 31.84375 C 41.21875 31.84375 41.080204 31.82426 41.03125 31.8125 C 40.93334 31.78897 40.851233 31.76636 40.65625 31.75 C 40.363776 31.72546 39.97606 31.72633 39.40625 31.78125 C 38.26663 31.891093 36.485147 32.237945 33.78125 33.15625 C 30.769828 34.178997 29.078414 34.770621 28 35.15625 L 28 32.46875 L 29.15625 32.15625 A 1.0001 1.0001 0 0 0 29.1875 32.15625 C 31.69795 31.383804 34.203744 31.0031 36.625 30.90625 z M 18 32.75 L 18 33.53125 C 17.20936 33.832642 15.183417 34.588929 13.5625 35.15625 C 11.766508 35.797676 10.753006 35.845282 10.15625 35.78125 C 10.494873 35.541442 10.822394 35.297702 11.6875 34.96875 C 11.72236 34.95549 11.71423 34.95075 11.75 34.9375 C 12.042495 34.85112 12.502165 34.689882 13.21875 34.4375 C 13.967337 34.173847 14.905272 33.856601 15.8125 33.53125 C 16.93445 33.128896 17.335524 32.992635 18 32.75 z M 39.59375 33.78125 C 39.122599 33.974321 38.909521 34.098801 38.15625 34.375 C 36.488258 34.989523 29.77795 37.416476 28 38.0625 L 28 37.3125 C 28.622517 37.08025 30.189358 36.494652 34.40625 35.0625 C 37.002353 34.180805 38.65837 33.871407 39.59375 33.78125 z"/>
</svg>
